<?xml version="1.0" encoding="UTF-8"?>
<!DOCTYPE svg PUBLIC "-//W3C//DTD SVG 1.1//EN" "http://www.w3.org/Graphics/SVG/1.1/DTD/svg11.dtd">
<svg version="1.1" xmlns="http://www.w3.org/2000/svg" xmlns:xlink="http://www.w3.org/1999/xlink" x="0" y="0" width="200" height="200" viewBox="0, 0, 200, 200">
  <defs>
    <clipPath id="Clip_1">
      <path d="M-6,-8 L206,-8 L206,208 L-6,208 z M200,100 L0,0 L0,200"/>
    </clipPath>
    <filter id="Shadow_2">
      <feGaussianBlur in="SourceAlpha" stdDeviation="2.5"/>
      <feOffset dx="0" dy="2" result="offsetblur"/>
      <feFlood flood-color="#000000"/>
      <feComposite in2="offsetblur" operator="in"/>
    </filter>
    <clipPath id="Clip_3">
      <path d="M69.768,58.152 L130.232,58.152 L130.232,141.848 L69.768,141.848 z M104.359,66.152 Q90.384,66.152 83.076,74.935 Q75.768,83.717 75.768,100 Q75.768,107.564 77.243,113.847 Q78.717,120.129 82.051,124.552 Q85.384,128.976 90.705,131.412 Q96.025,133.848 103.718,133.848 Q109.488,133.848 114.936,132.373 Q120.385,130.899 124.232,128.078 L120.385,115.385 Q118.078,116.924 115.129,118.014 Q112.18,119.103 107.949,119.103 Q104.103,119.103 101.218,117.629 Q98.333,116.154 96.538,113.59 Q94.743,111.026 93.846,107.564 Q92.948,104.103 92.948,100 Q92.948,90 96.538,85.448 Q100.128,80.897 107.052,80.897 Q110.77,80.897 113.654,81.666 Q116.539,82.435 119.488,83.845 L123.462,70.255 Q120.001,68.46 115.706,67.306 Q111.411,66.152 104.359,66.152 z"/>
    </clipPath>
    <filter id="Shadow_4">
      <feGaussianBlur in="SourceAlpha" stdDeviation="2.5"/>
      <feOffset dx="0" dy="2" result="offsetblur"/>
      <feFlood flood-color="#000000"/>
      <feComposite in2="offsetblur" operator="in"/>
    </filter>
    <clipPath id="Clip_5">
      <path d="M-0.54,29.8 L77.796,29.8 L77.796,169 L-0.54,169 z M25.239,37.8 L5.459,37.8 L5.459,161 L25.239,161 L25.239,104.856 Q26.608,98.696 30.792,94.736 Q34.976,90.776 39.997,90.776 Q46.843,90.776 49.43,95.528 Q52.016,100.28 52.016,111.016 L52.016,161 L71.796,161 L71.796,106.264 Q71.796,96.056 70.35,89.104 Q68.905,82.152 65.938,78.104 Q62.971,74.056 58.559,72.296 Q54.146,70.536 48.365,70.536 Q40.149,70.536 34.824,73.88 Q29.499,77.224 25.847,82.856 L25.239,82.856 L25.239,37.8 z"/>
    </clipPath>
    <filter id="Shadow_6">
      <feGaussianBlur in="SourceAlpha" stdDeviation="2.5"/>
      <feOffset dx="0" dy="2" result="offsetblur"/>
      <feFlood flood-color="#000000"/>
      <feComposite in2="offsetblur" operator="in"/>
    </filter>
  </defs>
  <g id="Layer_1">
    <path d="M0,0 L200,0 L200,200 L0,200" fill="#002A8F"/>
    <path d="M0,40 L200,40 L200,80 L0,80 L0,120 L200,120 L200,160 L0,160" fill="#FFFFFF"/>
    <g>
      <path d="M0,200 L0,0 L200,100" clip-path="url(#Clip_1)" filter="url(#Shadow_2)" fill="rgba(0,0,0,0.75)"/>
      <path d="M200,100 L-0,0 L-0,200" fill="#CF142B"/>
    </g>
    <path d="M57.75,70 L75.425,124.25 L29.175,90.75 L86.275,90.75 L40.025,124.25" fill="#FFFFFF" opacity="0"/>
    <text transform="matrix(1, 0, 0, 1, -69, 185.25)" display="none">
      <tspan x="-127.14" y="81" font-family="PTSans-Bold" font-size="260" fill="#FFFFFF">hc</tspan>
    </text>
    <g>
      <path d="M104.359,66.152 Q111.411,66.152 115.706,67.306 Q120.001,68.46 123.462,70.255 L119.488,83.845 Q116.539,82.435 113.654,81.666 Q110.77,80.897 107.052,80.897 Q100.128,80.897 96.538,85.448 Q92.948,90 92.948,100 Q92.948,104.103 93.846,107.564 Q94.743,111.026 96.538,113.59 Q98.333,116.154 101.218,117.629 Q104.103,119.103 107.949,119.103 Q112.18,119.103 115.129,118.014 Q118.078,116.924 120.385,115.385 L124.232,128.078 Q120.385,130.899 114.936,132.373 Q109.488,133.848 103.718,133.848 Q96.025,133.848 90.705,131.412 Q85.384,128.976 82.051,124.552 Q78.717,120.129 77.243,113.847 Q75.768,107.564 75.768,100 Q75.768,83.717 83.076,74.935 Q90.384,66.152 104.359,66.152 z" clip-path="url(#Clip_3)" filter="url(#Shadow_4)" fill="rgba(0,0,0,0.75)"/>
      <path d="M124.232,128.078 Q120.385,130.899 114.936,132.373 Q109.488,133.848 103.718,133.848 Q96.025,133.848 90.705,131.412 Q85.384,128.976 82.051,124.552 Q78.717,120.129 77.243,113.847 Q75.768,107.564 75.768,100 Q75.768,83.717 83.076,74.935 Q90.384,66.152 104.359,66.152 Q111.411,66.152 115.706,67.306 Q120.001,68.46 123.462,70.255 L119.488,83.846 Q116.539,82.435 113.654,81.666 Q110.77,80.897 107.052,80.897 Q100.128,80.897 96.538,85.448 Q92.948,90 92.948,100 Q92.948,104.103 93.846,107.564 Q94.743,111.026 96.538,113.59 Q98.333,116.154 101.218,117.629 Q104.103,119.103 107.949,119.103 Q112.18,119.103 115.129,118.014 Q118.078,116.924 120.385,115.385 z" fill="#FFFFFF"/>
    </g>
    <g>
      <path d="M25.239,37.8 L25.239,82.856 L25.847,82.856 Q29.499,77.224 34.824,73.88 Q40.149,70.536 48.365,70.536 Q54.146,70.536 58.559,72.296 Q62.971,74.056 65.938,78.104 Q68.905,82.152 70.35,89.104 Q71.796,96.056 71.796,106.264 L71.796,161 L52.016,161 L52.016,111.016 Q52.016,100.28 49.43,95.528 Q46.843,90.776 39.997,90.776 Q34.976,90.776 30.792,94.736 Q26.608,98.696 25.239,104.856 L25.239,161 L5.459,161 L5.459,37.8 L25.239,37.8 z" clip-path="url(#Clip_5)" filter="url(#Shadow_6)" fill="rgba(0,0,0,0.75)"/>
      <path d="M52.016,161 L52.016,111.016 Q52.016,100.28 49.43,95.528 Q46.843,90.776 39.997,90.776 Q34.976,90.776 30.792,94.736 Q26.608,98.696 25.239,104.856 L25.239,161 L5.46,161 L5.46,37.8 L25.239,37.8 L25.239,82.856 L25.847,82.856 Q29.499,77.224 34.824,73.88 Q40.149,70.536 48.365,70.536 Q54.146,70.536 58.559,72.296 Q62.971,74.056 65.938,78.104 Q68.905,82.152 70.35,89.104 Q71.796,96.056 71.796,106.264 L71.796,161 z" fill="#FFFFFF"/>
    </g>
  </g>
</svg>
